# xmcd
#
# Track frame offsets:
#	150
#	18707
#	38475
#	57782
#	73802
#	89020
#	111312
#	130670
#	144847
#	162482
#	190330
#	216825
#
# Disc length: 3135 seconds
#
# Revision: 2
# Processed by: cddbd v1.5.1PL2 Copyright (c) Steve Scherf et al.
# Submitted via: dBpowerAMP V4.0
#
DISCID=ae0c3d0c
DTITLE=Portrait - Picturesque
DYEAR=1996
DGENRE=RnB
TTITLE0=Right Here Waiting
TTITLE1=Tears In Heaven
TTITLE2=Greatest Love Of All (ft Shiro)
TTITLE3=You Are So Beautiful
TTITLE4=In Your Eyes
TTITLE5=Forever With You (ft Jin Young Park)
TTITLE6=Too Much Heaven
TTITLE7=Only You (And You Alone)
TTITLE8=Will You Still Love Me (Apa Saja)
TTITLE9=Three Times A Lady
TTITLE10=Love Endures
TTITLE11=How Deep Is Your Love (Acappella)
EXTD=
EXTT0=
EXTT1=
EXTT2=
EXTT3=
EXTT4=
EXTT5=
EXTT6=
EXTT7=
EXTT8=
EXTT9=
EXTT10=
EXTT11=
PLAYORDER=
